<?xml version="1.0" encoding="UTF-8" standalone="no"?>
<!-- Created with Inkscape (http://www.inkscape.org/) -->

<svg
   xmlns:dc="http://purl.org/dc/elements/1.1/"
   xmlns:cc="http://creativecommons.org/ns#"
   xmlns:rdf="http://www.w3.org/1999/02/22-rdf-syntax-ns#"
   xmlns:svg="http://www.w3.org/2000/svg"
   xmlns="http://www.w3.org/2000/svg"
   xmlns:xlink="http://www.w3.org/1999/xlink"
   xmlns:sodipodi="http://sodipodi.sourceforge.net/DTD/sodipodi-0.dtd"
   xmlns:inkscape="http://www.inkscape.org/namespaces/inkscape"
   width="210mm"
   height="297mm"
   viewBox="0 0 210 297"
   version="1.1"
   id="svg8"
   inkscape:version="0.92.3 (2405546, 2018-03-11)"
   sodipodi:docname="fig1.svg">
  <defs
     id="defs2">
    <marker
       inkscape:stockid="Arrow2Lend"
       orient="auto"
       refY="0.0"
       refX="0.0"
       id="Arrow2Lend"
       style="overflow:visible;"
       inkscape:isstock="true">
      <path
         id="path4692"
         style="fill-rule:evenodd;stroke-width:0.625;stroke-linejoin:round;stroke:#000000;stroke-opacity:1;fill:#000000;fill-opacity:1"
         d="M 8.7185878,4.0337352 L -2.2072895,0.016013256 L 8.7185884,-4.0017078 C 6.9730900,-1.6296469 6.9831476,1.6157441 8.7185878,4.0337352 z "
         transform="scale(1.1) rotate(180) translate(1,0)" />
    </marker>
    <marker
       inkscape:stockid="Arrow1Lend"
       orient="auto"
       refY="0.0"
       refX="0.0"
       id="Arrow1Lend"
       style="overflow:visible;"
       inkscape:isstock="true">
      <path
         id="path4674"
         d="M 0.0,0.0 L 5.0,-5.0 L -12.5,0.0 L 5.0,5.0 L 0.0,0.0 z "
         style="fill-rule:evenodd;stroke:#000000;stroke-width:1pt;stroke-opacity:1;fill:#000000;fill-opacity:1"
         transform="scale(0.8) rotate(180) translate(12.5,0)" />
    </marker>
    <linearGradient
       inkscape:collect="always"
       id="linearGradient4657">
      <stop
         style="stop-color:#000000;stop-opacity:1;"
         offset="0"
         id="stop4653" />
      <stop
         style="stop-color:#000000;stop-opacity:0;"
         offset="1"
         id="stop4655" />
    </linearGradient>
    <linearGradient
       inkscape:collect="always"
       id="linearGradient4649">
      <stop
         style="stop-color:#000000;stop-opacity:1;"
         offset="0"
         id="stop4645" />
      <stop
         style="stop-color:#000000;stop-opacity:0;"
         offset="1"
         id="stop4647" />
    </linearGradient>
    <linearGradient
       inkscape:collect="always"
       xlink:href="#linearGradient4649"
       id="linearGradient4651"
       x1="37.073047"
       y1="173.7313"
       x2="73.704057"
       y2="173.7313"
       gradientUnits="userSpaceOnUse" />
    <linearGradient
       inkscape:collect="always"
       xlink:href="#linearGradient4657"
       id="linearGradient4659"
       x1="37.205339"
       y1="173.7313"
       x2="73.571766"
       y2="173.7313"
       gradientUnits="userSpaceOnUse" />
  </defs>
  <sodipodi:namedview
     id="base"
     pagecolor="#ffffff"
     bordercolor="#666666"
     borderopacity="1.0"
     inkscape:pageopacity="0.0"
     inkscape:pageshadow="2"
     inkscape:zoom="1.4"
     inkscape:cx="282.55766"
     inkscape:cy="567.36977"
     inkscape:document-units="mm"
     inkscape:current-layer="layer1"
     showgrid="false"
     inkscape:window-width="1920"
     inkscape:window-height="1136"
     inkscape:window-x="0"
     inkscape:window-y="27"
     inkscape:window-maximized="1"
     inkscape:snap-grids="false"
     inkscape:snap-to-guides="false"
     inkscape:object-nodes="false"
     inkscape:snap-nodes="false"
     inkscape:snap-others="false" />
  <metadata
     id="metadata5">
    <rdf:RDF>
      <cc:Work
         rdf:about="">
        <dc:format>image/svg+xml</dc:format>
        <dc:type
           rdf:resource="http://purl.org/dc/dcmitype/StillImage" />
        <dc:title />
      </cc:Work>
    </rdf:RDF>
  </metadata>
  <g
     inkscape:label="Layer 1"
     inkscape:groupmode="layer"
     id="layer1">
    <text
       xml:space="preserve"
       style="font-style:normal;font-weight:normal;font-size:3.52777767px;line-height:1.25000002%;font-family:sans-serif;letter-spacing:0px;word-spacing:0px;fill:#000000;fill-opacity:1;stroke:none;stroke-width:0.26458332px;stroke-linecap:butt;stroke-linejoin:miter;stroke-opacity:1"
       x="25.171099"
       y="80.263077"
       id="text12"
       inkscape:export-xdpi="96"
       inkscape:export-ydpi="96"><tspan
         sodipodi:role="line"
         id="tspan10"
         x="25.171099"
         y="80.263077"
         style="font-size:5.64444447px;line-height:2.25000009%;stroke-width:0.26458332px">Programy i zadania użytkownika</tspan><tspan
         sodipodi:role="line"
         x="25.171099"
         y="80.307175"
         style="stroke-width:0.26458332px"
         id="tspan14" /></text>
    <text
       xml:space="preserve"
       style="font-style:normal;font-weight:normal;font-size:3.52777767px;line-height:1.25000002%;font-family:sans-serif;letter-spacing:0px;word-spacing:0px;fill:#000000;fill-opacity:1;stroke:none;stroke-width:0.26458332px;stroke-linecap:butt;stroke-linejoin:miter;stroke-opacity:1"
       x="20.579754"
       y="112.04949"
       id="text18"
       inkscape:export-xdpi="96"
       inkscape:export-ydpi="96"><tspan
         sodipodi:role="line"
         id="tspan16"
         x="20.579754"
         y="112.04949"
         style="font-size:5.64444447px;stroke-width:0.26458332px">Hardware (CPU, pamięć, dysk, inne.)</tspan></text>
    <path
       style="fill:#0000da;fill-opacity:1;stroke-width:0.26458332"
       id="path20"
       d="m 30.118386,83.952857 c 0.998349,0.123187 1.99667,0.252338 2.998528,0.348281 2.074211,0.156232 4.155845,0.181237 6.235044,0.194144 3.026555,0.0398 6.053534,0.03359 9.080333,0.03533 3.043703,-7.94e-4 6.087369,-0.0082 9.131088,-0.01143 3.694202,-0.0013 7.388135,0.04554 11.082271,0.06075 5.719718,0.02984 11.43953,0.07002 17.159301,0.05613 6.822638,0.03508 13.645866,0.05938 20.468509,0.0065 3.66734,-0.0054 7.33418,-0.06122 11.00077,-0.129876 0,0 -2.96501,2.154211 -2.96501,2.154211 v 0 c -3.54739,-0.07004 -7.09507,-0.125225 -10.64327,-0.129874 -6.828607,-0.05405 -13.657831,-0.02739 -20.486452,0.0065 -5.771255,-0.01413 -11.542556,0.02684 -17.313761,0.0561 -3.750104,0.01527 -7.500012,0.0618 -11.250176,0.0613 -3.035078,-0.0026 -6.070119,-0.0085 -9.105178,-0.0073 -3.052246,0.0033 -6.104466,0.0034 -9.156655,0.01659 -2.11937,-0.01844 -4.241326,-7.93e-4 -6.357104,-0.144356 -1.045932,-0.08739 -2.090539,-0.194612 -3.134169,-0.304247 0,0 3.255931,-2.268752 3.255931,-2.268753 z"
       inkscape:connector-curvature="0"
       inkscape:export-xdpi="96"
       inkscape:export-ydpi="96" />
    <path
       style="fill:#0000da;fill-opacity:1;stroke-width:0.26458332"
       id="path22"
       d="m 28.417795,102.63508 c 3.351792,0.10927 6.705994,0.0916 10.059096,0.0934 3.438313,0.0566 6.868593,-0.26782 10.305295,-0.30302 0.83629,-0.009 1.672598,0.0149 2.508899,0.0224 6.06077,0.14655 12.122099,0.252 18.184277,0.31535 6.417009,0.14705 12.834919,0.20897 19.25307,0.27221 4.918337,-0.004 9.83774,0.043 14.755098,-0.0735 2.26674,-0.079 4.53163,-0.19999 6.79734,-0.30253 0.88268,-0.0493 1.76665,-0.0446 2.65029,-0.0435 1.10224,0.007 2.20451,0.01 3.30674,0.0181 0.89629,0.009 1.7926,0.003 2.68886,-0.005 0,0 -3.1244,2.26996 -3.1244,2.26996 v 0 c -0.89141,-0.008 -1.78285,-0.0143 -2.67429,-0.006 -1.11736,0.008 -2.23475,0.009 -3.35212,0.0158 -0.86751,0.004 -1.73491,0.0154 -2.60241,0.0219 -2.181,0.0267 -4.36139,0.0868 -6.54242,0.11043 -4.839683,0.0394 -9.679957,-0.0822 -14.519557,-0.10807 -6.41183,-0.0484 -12.822621,-0.19067 -19.23389,-0.28644 -6.106779,-0.0526 -12.212714,-0.16266 -18.319435,-0.21314 -0.851414,0.008 -1.70302,0.005 -2.554237,0.0253 -3.460179,0.0815 -6.914682,0.40576 -10.378131,0.34096 -3.438792,0.002 -6.878505,-0.013 -10.316095,0.0934 0,0 3.10802,-2.25811 3.10802,-2.25811 z"
       inkscape:connector-curvature="0"
       inkscape:export-xdpi="96"
       inkscape:export-ydpi="96" />
    <text
       xml:space="preserve"
       style="font-style:normal;font-weight:normal;font-size:3.52777767px;line-height:1.25000002%;font-family:sans-serif;letter-spacing:0px;word-spacing:0px;fill:#000000;fill-opacity:1;stroke:none;stroke-width:0.26458332px;stroke-linecap:butt;stroke-linejoin:miter;stroke-opacity:1"
       x="43.030392"
       y="96.280594"
       id="text26"
       inkscape:export-xdpi="96"
       inkscape:export-ydpi="96"><tspan
         sodipodi:role="line"
         id="tspan24"
         x="43.030392"
         y="96.280594"
         style="font-size:5.64444447px;stroke-width:0.26458332px">System operacyjny</tspan></text>
    <text
       xml:space="preserve"
       style="font-style:normal;font-weight:normal;font-size:3.52777767px;line-height:4.63999987px;font-family:sans-serif;text-align:center;letter-spacing:0px;word-spacing:0px;text-anchor:middle;fill:#000000;fill-opacity:1;stroke:none;stroke-width:0.26458332px;stroke-linecap:butt;stroke-linejoin:miter;stroke-opacity:1"
       x="70.908096"
       y="172.4153"
       id="text12-3"
       inkscape:export-xdpi="96"
       inkscape:export-ydpi="96"><tspan
         sodipodi:role="line"
         x="70.908096"
         y="172.4153"
         style="font-size:5.64444447px;line-height:4.63999987px;text-align:center;text-anchor:middle;fill:#000000;fill-opacity:1;stroke:none;stroke-width:0.26458332px;stroke-opacity:1"
         id="tspan89">Przestrzeń</tspan><tspan
         sodipodi:role="line"
         x="70.908096"
         y="177.60513"
         style="font-size:5.64444447px;line-height:4.63999987px;text-align:center;text-anchor:middle;fill:#000000;fill-opacity:1;stroke:none;stroke-width:0.26458332px;stroke-opacity:1"
         id="tspan115">użytkownika</tspan><tspan
         sodipodi:role="line"
         x="70.908096"
         y="182.24513"
         style="line-height:4.63999987px;text-align:center;text-anchor:middle;fill:#000000;fill-opacity:1;stroke:none;stroke-width:0.26458332px;stroke-opacity:1"
         id="tspan14-7" /></text>
    <text
       xml:space="preserve"
       style="font-style:normal;font-weight:normal;font-size:3.52777767px;line-height:1.25000002%;font-family:sans-serif;letter-spacing:0px;word-spacing:0px;fill:#000000;fill-opacity:1;stroke:none;stroke-width:0.26458332px;stroke-linecap:butt;stroke-linejoin:miter;stroke-opacity:1"
       x="51.073505"
       y="207.94347"
       id="text18-5"
       inkscape:export-xdpi="96"
       inkscape:export-ydpi="96"><tspan
         sodipodi:role="line"
         id="tspan16-3"
         x="51.073505"
         y="207.94347"
         style="font-size:5.64444447px;stroke-width:0.26458332px">Hardware</tspan></text>
    <path
       style="fill:#ff0000;fill-opacity:1;stroke-width:0.26458332"
       id="path20-5"
       d="m 58.473983,181.04956 c 0.998349,0.12319 1.99667,0.25234 2.998528,0.34828 2.074211,0.15623 4.155845,0.18124 6.235044,0.19415 3.026555,0.0398 6.053534,0.0336 9.080332,0.0353 3.043703,-8e-4 6.08737,-0.008 9.131089,-0.0114 3.694202,-0.001 7.388135,0.0455 11.082271,0.0607 5.719713,0.0298 11.439533,0.07 17.159303,0.0561 6.82264,0.0351 13.64586,0.0594 20.46851,0.007 3.66734,-0.005 7.33418,-0.0612 11.00077,-0.12988 0,0 -2.96501,2.15421 -2.96501,2.15421 v 0 c -3.54739,-0.07 -7.09507,-0.12522 -10.64327,-0.12987 -6.82861,-0.0541 -13.65783,-0.0274 -20.48646,0.006 -5.77125,-0.0141 -11.542551,0.0268 -17.313757,0.0561 -3.750103,0.0153 -7.500011,0.0618 -11.250176,0.0613 -3.035077,-0.003 -6.070118,-0.008 -9.105177,-0.007 -3.052246,0.003 -6.104466,0.003 -9.156655,0.0166 -2.11937,-0.0184 -4.241326,-8e-4 -6.357104,-0.14436 -1.045932,-0.0874 -2.090539,-0.19461 -3.134169,-0.30425 0,0 3.255931,-2.26875 3.255931,-2.26875 z"
       inkscape:connector-curvature="0"
       inkscape:export-xdpi="96"
       inkscape:export-ydpi="96" />
    <path
       style="fill:#0000da;fill-opacity:1;stroke-width:0.26458332"
       id="path22-6"
       d="m 56.773392,199.73178 c 3.351792,0.10927 6.705994,0.0916 10.059096,0.0934 3.438313,0.0566 6.868593,-0.26782 10.305295,-0.30302 0.83629,-0.009 1.672598,0.0149 2.508898,0.0224 6.060771,0.14655 12.1221,0.252 18.184278,0.31535 6.417011,0.14705 12.834921,0.20897 19.253071,0.27221 4.91834,-0.004 9.83774,0.043 14.7551,-0.0735 2.26674,-0.079 4.53163,-0.19999 6.79734,-0.30253 0.88268,-0.0493 1.76665,-0.0446 2.65029,-0.0435 1.10224,0.007 2.20451,0.01 3.30674,0.0181 0.89629,0.009 1.7926,0.003 2.68886,-0.005 0,0 -3.1244,2.26996 -3.1244,2.26996 v 0 c -0.89141,-0.008 -1.78285,-0.0143 -2.67429,-0.006 -1.11736,0.008 -2.23475,0.009 -3.35212,0.0158 -0.86751,0.004 -1.73491,0.0154 -2.60241,0.0219 -2.181,0.0267 -4.36139,0.0868 -6.54242,0.11043 -4.83969,0.0394 -9.67996,-0.0822 -14.51956,-0.10807 -6.41183,-0.0484 -12.82262,-0.19067 -19.233891,-0.28644 -6.106779,-0.0526 -12.212714,-0.16266 -18.319435,-0.21314 -0.851413,0.008 -1.703019,0.005 -2.554236,0.0253 -3.460179,0.0815 -6.914682,0.40576 -10.378131,0.34096 -3.438792,0.002 -6.878505,-0.013 -10.316096,0.0934 0,0 3.108021,-2.25811 3.108021,-2.25811 z"
       inkscape:connector-curvature="0"
       inkscape:export-xdpi="96"
       inkscape:export-ydpi="96" />
    <rect
       style="fill:#808000;fill-opacity:1;stroke-width:0.2490418"
       id="rect117"
       width="92.064308"
       height="14.536263"
       x="54.416245"
       y="184.38762"
       inkscape:export-xdpi="96"
       inkscape:export-ydpi="96" />
    <text
       xml:space="preserve"
       style="font-style:normal;font-weight:normal;font-size:3.52777767px;line-height:1.25000002%;font-family:sans-serif;letter-spacing:0px;word-spacing:0px;fill:#000000;fill-opacity:1;stroke:none;stroke-width:0.26458332px;stroke-linecap:butt;stroke-linejoin:miter;stroke-opacity:1"
       x="83.052368"
       y="194.06734"
       id="text26-2"
       inkscape:export-xdpi="96"
       inkscape:export-ydpi="96"><tspan
         sodipodi:role="line"
         id="tspan24-9"
         x="83.052368"
         y="194.06734"
         style="font-size:5.64444447px;stroke-width:0.26458332px">Kernel</tspan></text>
    <ellipse
       style="fill:none;fill-opacity:1;stroke:#ff6400;stroke-width:0.26458332;stroke-opacity:1"
       id="path4661"
       cx="121.47399"
       cy="172.71967"
       rx="29.266012"
       ry="7.8844509"
       inkscape:export-xdpi="96"
       inkscape:export-ydpi="96" />
    <text
       xml:space="preserve"
       style="font-style:normal;font-weight:normal;font-size:3.52777767px;line-height:120.64999342%;font-family:sans-serif;text-align:center;letter-spacing:0px;word-spacing:0px;text-anchor:middle;fill:#000000;fill-opacity:1;stroke:none;stroke-width:0.26458332px;stroke-linecap:butt;stroke-linejoin:miter;stroke-opacity:1"
       x="119.68356"
       y="171.51695"
       id="text4665"
       inkscape:export-xdpi="96"
       inkscape:export-ydpi="96"><tspan
         sodipodi:role="line"
         id="tspan4663"
         x="119.68356"
         y="171.51695"
         style="line-height:120.64999342%;text-align:center;text-anchor:middle;stroke-width:0.26458332px">Programy</tspan><tspan
         sodipodi:role="line"
         x="119.68356"
         y="175.77321"
         style="line-height:120.64999342%;text-align:center;text-anchor:middle;stroke-width:0.26458332px"
         id="tspan4667">użytkownika - procesy</tspan><tspan
         sodipodi:role="line"
         x="119.68356"
         y="180.02948"
         style="line-height:120.64999342%;text-align:center;text-anchor:middle;stroke-width:0.26458332px"
         id="tspan5153" /></text>
    <path
       style="fill:none;fill-rule:evenodd;stroke:#000000;stroke-width:0.26458332px;stroke-linecap:butt;stroke-linejoin:miter;stroke-opacity:1;marker-end:url(#Arrow2Lend)"
       d="m 142.12057,175.72645 c 13.49711,8.35218 1.33635,19.04296 1.33635,19.04296"
       id="path5113"
       inkscape:connector-curvature="0"
       inkscape:export-xdpi="96"
       inkscape:export-ydpi="96" />
    <text
       xml:space="preserve"
       style="font-style:normal;font-weight:normal;font-size:3.52777767px;line-height:108.55001211%;font-family:sans-serif;letter-spacing:0px;word-spacing:0px;fill:#000000;fill-opacity:1;stroke:none;stroke-width:0.26458332px;stroke-linecap:butt;stroke-linejoin:miter;stroke-opacity:1"
       x="149.53731"
       y="181.00502"
       id="text5265"
       inkscape:export-xdpi="96"
       inkscape:export-ydpi="96"><tspan
         sodipodi:role="line"
         id="tspan5263"
         x="149.53731"
         y="181.00502"
         style="line-height:108.55001211%;stroke-width:0.26458332px">wywołanie</tspan><tspan
         sodipodi:role="line"
         x="149.53731"
         y="184.83443"
         style="line-height:108.55001211%;stroke-width:0.26458332px"
         id="tspan5267">operacji </tspan><tspan
         sodipodi:role="line"
         x="149.53731"
         y="188.66383"
         style="line-height:108.55001211%;stroke-width:0.26458332px"
         id="tspan5269">systemowej</tspan></text>
  </g>
</svg>
